<?xml version="1.0"?>
<svg xmlns="http://www.w3.org/2000/svg" xmlns:xlink="http://www.w3.org/1999/xlink" viewBox="0 0 200 200" width="200" height="200"><defs><style>.a{clip-path:url(#d);}.b{fill:none;}.c{fill:url(#a);}.d{fill:url(#b);}</style><linearGradient id="a" x1="0.5" x2="0.5" y2="1" gradientUnits="objectBoundingBox"><stop offset="0" stop-color="#00e4f7"/><stop offset="1" stop-color="#00baff"/></linearGradient><linearGradient id="b" x1="0.5" x2="0.5" y2="1" gradientUnits="objectBoundingBox"><stop offset="0" stop-color="#004165"/><stop offset="1" stop-color="#3bb2ff"/></linearGradient><clipPath id="d"><rect width="200" height="200"/></clipPath></defs><g id="c" class="a"><rect class="b" width="200" height="200"/><g transform="translate(0 18.8)"><path class="c" d="M93.117,105.291l29.5,40.677a39.152,39.152,0,0,0,54.452,8.577h0a39.152,39.152,0,0,0,8.577-54.452L124.567,16.01A38.423,38.423,0,0,0,109.232,3.534c-.13,0-.13-.13-.26-.13-.52-.26-.91-.39-1.43-.65-.13,0-.26-.13-.52-.13a5.43,5.43,0,0,1-1.3-.52c-.13,0-.39-.13-.52-.13-.39-.13-.78-.26-1.3-.39-.13,0-.39-.13-.52-.13-.52-.13-.91-.26-1.43-.39a.477.477,0,0,1-.39-.13c-.52-.13-1.17-.26-1.689-.39h0A38.957,38.957,0,0,0,69.985,7.3h0a38.151,38.151,0,0,0-7.408,7.018h0a9.92,9.92,0,0,0-1.04,1.43l-.13.13L23.2,68.9a28.013,28.013,0,0,1,43.666-.13Z" transform="translate(6.948 0.085)"/><g transform="translate(0 58.592)"><path class="d" d="M7.407,86.587a38.978,38.978,0,1,0,63.03,45.875l29.63-40.677L73.7,55.159a27.884,27.884,0,0,0-43.68.367Z" transform="translate(-0.002 -45)"/></g></g></g></svg>
